<svg class="icon" style="width: 1em; height: 1em;vertical-align: middle;fill: currentColor;overflow: hidden;" viewBox="0 0 1024 1024" version="1.1" xmlns="http://www.w3.org/2000/svg" >
    <path d="M506.282667 803.925333c1.002667 0 2.069333-0.042667 3.114667-0.042667 170.261333-2.005333 238.528-150.869333 239.189333-152.341333L274.112 651.306667C276.949333 657.6 346.069333 803.925333 506.282667 803.925333z" ></path>
    <path d="M326.805333 478.506667c27.029333 0 48.789333-21.866667 48.789333-48.810667s-21.781333-48.789333-48.789333-48.789333c-26.922667-0.042667-48.746667 21.824-48.746667 48.789333C278.058667 456.618667 299.84 478.506667 326.805333 478.506667z" ></path>
    <path d="M697.749333 429.717333m-48.810667 0a2.288 2.288 0 1 0 97.621333 0 2.288 2.288 0 1 0-97.621333 0Z" ></path>
    <path d="M512 0C229.696 0 0 229.696 0 512c0 282.325333 229.696 512 512 512 282.325333 0 512-229.674667 512-512C1024 229.696 794.325333 0 512 0zM512 981.098667C253.333333 981.098667 42.88 770.666667 42.88 512S253.333333 42.88 512 42.88 981.077333 253.333333 981.077333 512 770.666667 981.098667 512 981.098667z" ></path>
</svg>